# xmcd CD database file
#
# Track frame offsets:
#	150
#	20135
#	37344
#	52126
#	66657
#	84001
#	102074
#	116370
#	132611
#	148325
#	167642
#	184986
#	203482
#	222464
#	241007
#	258030
#	279220
#
# Disc length: 3997 seconds
#
# Revision: 2
# Processed by: cddbd v1.5.2PL0 Copyright (c) Steve Scherf et al.
# Submitted via: CDex 2.21
#
DISCID=fe0f9b11
DTITLE=Michelle Wright - The Wright Songs
DYEAR=2011
DGENRE=Country
TTITLE0=In The Blink Of An Eye
TTITLE1=I Surrender
TTITLE2=You Can't Lose Them All
TTITLE3=What Love Looks Like
TTITLE4=He Would Be Sixteen
TTITLE5=Something Wild
TTITLE6=Crank My Tractor
TTITLE7=I Don't Wanna Be That Strong
TTITLE8=Safe In The Arms Of Love
TTITLE9=Guitar Talk
TTITLE10=Your Love
TTITLE11=The Old Song And Dance
TTITLE12=I've Forgotten You
TTITLE13=Broken
TTITLE14=Nobody's Girl
TTITLE15=Take It Like A Man
TTITLE16=Everything And More
EXTD=YEAR: 2011
EXTT0=
EXTT1=
EXTT2=
EXTT3=
EXTT4=
EXTT5=
EXTT6=
EXTT7=
EXTT8=
EXTT9=
EXTT10=
EXTT11=
EXTT12=
EXTT13=
EXTT14=
EXTT15=
EXTT16=
PLAYORDER=
